<svg width="1395" height="660" viewBox="0 0 1395 660" fill="none" xmlns="http://www.w3.org/2000/svg">
<mask id="mask0" mask-type="alpha" maskUnits="userSpaceOnUse" x="-5" y="0" width="1400" height="660">
<path d="M1295 0H-5V660H1395V100C1395 44.7715 1350.23 0 1295 0Z" fill="#0F264C"/>
</mask>
<g mask="url(#mask0)">
<path opacity="0.2" d="M-221 316.609C-171.999 252.887 -42.2115 128.63 84.9269 141.375C243.85 157.305 -58.1039 456 84.9269 456C227.958 456 295.5 89.6007 398.8 89.6007C502.1 89.6007 283.581 360.418 398.8 376.348C514.019 392.278 609.373 -5.9817 736.512 -9.9643C863.65 -13.9469 605.4 316.609 812 316.609" stroke="url(#paint0_linear)" stroke-width="2"/>
</g>
<defs>
<linearGradient id="paint0_linear" x1="295.5" y1="100.318" x2="295.5" y2="558.71" gradientUnits="userSpaceOnUse">
<stop stop-color="#F37753"/>
<stop offset="1" stop-color="white" stop-opacity="0"/>
</linearGradient>
</defs>
</svg>
